<svg width="51" height="51" viewBox="0 0 51 51" fill="none" xmlns="http://www.w3.org/2000/svg">
<path d="M12.75 19.125C16.2708 19.125 19.125 16.2708 19.125 12.75C19.125 9.22918 16.2708 6.375 12.75 6.375C9.22918 6.375 6.375 9.22918 6.375 12.75C6.375 16.2708 9.22918 19.125 12.75 19.125Z" stroke="#59468D" stroke-width="2" stroke-linecap="round" stroke-linejoin="round"/>
<path d="M12.75 44.625C16.2708 44.625 19.125 41.7708 19.125 38.25C19.125 34.7292 16.2708 31.875 12.75 31.875C9.22918 31.875 6.375 34.7292 6.375 38.25C6.375 41.7708 9.22918 44.625 12.75 44.625Z" stroke="#59468D" stroke-width="2" stroke-linecap="round" stroke-linejoin="round"/>
<path d="M42.4999 8.5L17.2549 33.745" stroke="#59468D" stroke-width="2" stroke-linecap="round" stroke-linejoin="round"/>
<path d="M30.749 30.77L42.5003 42.5" stroke="#59468D" stroke-width="2" stroke-linecap="round" stroke-linejoin="round"/>
<path d="M17.2549 17.2549L25.4999 25.4999" stroke="#59468D" stroke-width="2" stroke-linecap="round" stroke-linejoin="round"/>
</svg>
